<svg height="60" viewBox="0 0 261 60" width="261" xmlns="http://www.w3.org/2000/svg"><path d="m166.39104 22.0724484-.007266-.004702s-.004275-.0025647-.009404-.0025647c-.176966-.0777966-.371031-.1179773-.557828-.1179773-.302637.0021373-.592879.0923301-.845932.2504881-.257754.1632874-.475756.4018068-.601.6997423v.0072667l-5.904423 16.1590454-4.550248-10.8308307-.007267-.0051294c-.127809-.3026375-.356924-.5364549-.616816-.6993149-.262884-.1632874-.565522-.2530528-.884402-.2530528-.309477 0-.598009.0966046-.853199.2551901-.250915.16286-.477466.3945401-.605275.6971776l-.002564.0051294-4.559653 10.8380974-5.936054-16.1522061h-.004275c-.103871-.3120415-.314606-.5556903-.565094-.716413-.25519-.16286-.553125-.2530528-.860465-.2551901-.196201 0-.39454.0401807-.581765.1179773h-.008976l-.007267.0072667c-.553126.2577548-.891242.8108804-.893379 1.4135906 0 .1893621.037616.3782968.110711.5650942h-.002138l7.30177 19.6056075v.0072667c.056852.1461893.137213.2906687.255618.4325835.084636.1017341.210307.1867974.340253.2577548.023938.02351.061554.0564239.117978.0919026.061553.0380434.139777.0641181.220138.0782241.129946.0427454.302638.1060086.534318.1060086.294943 0 .569369-.1060086.815155-.2645941.229543-.153456.435148-.3829988.548423-.6805068l.018808-.0145334 4.616932-11.0368636 4.62377 10.9919809h.004702c.106436.2932335.293234.5227763.510808.6856363.229115.1726914.486442.2791275.758731.3188807h.193636c.18466 0 .364191-.0350512.515082-.0940399.158586-.0615534.286395-.1419147.392403-.2222761.248351-.1893621.43985-.4492542.558255-.7377857v-.0068393l7.25475-19.5184068c.070958-.1867974.108574-.3735948.108574-.5625295-.002138-.5980082-.354787-1.1678045-.936125-1.4161553zm-33.377749 11.1928843c0-2.3022675-.883975-4.3873883-2.290299-5.893309-1.413591-1.5080578-3.328585-2.4300762-5.408576-2.4300762-2.080419 0-3.999688.9220184-5.411141 2.4300762-1.408888 1.5059207-2.292863 3.5910415-2.292863 5.893309 0 2.3001303.883975 4.3660157 2.292863 5.8621049 1.411453 1.5012186 3.330722 2.409131 5.411141 2.409131 2.079991 0 4.001825-.9079124 5.408576-2.409131 1.406324-1.4960892 2.290299-3.5619746 2.290299-5.8621049zm-.040181-7.9921083c1.95261 2.0705874 3.139223 4.9118744 3.143925 7.9921083-.004702 3.0802339-1.191315 5.9189563-3.143925 7.9899711-1.938077 2.0684502-4.644716 3.3756047-7.653992 3.3756047-2.985767 0-5.697108-1.3071545-7.642451-3.3756047-1.947908-2.0710148-3.153329-4.9097372-3.153329-7.9899711s1.205421-5.9215209 3.153329-7.9921083c1.945343-2.0663129 4.656684-3.3734674 7.642451-3.3734674 3.009276 0 5.715915 1.3071545 7.653992 3.3734674zm-30.742068-3.3332867c-2.4206719 0-4.6306094.9433911-6.280582 2.4488842v-.9002182c-.0025647-.4137755-.1560207-.7993391-.4257442-1.0827411-.2620294-.2791275-.6501577-.4659249-1.0754744-.4659249-.4398503 0-.8369551.1773934-1.1130904.4633602-.2718608.2812647-.4351482.6715303-.4351482 1.0853058v20.0621284l.0636906.0636906.0025648.009404c.0166707.0662554.0589886.13935.1038713.2103074.2103074.3710301.5552628.6527223.9831443.7775389l.0615534.0192355h.3334142c.2222761 0 .4466894-.0474474.6595616-.1466168.1773934-.0850633.3428181-.2222761.4753289-.3971048l.004702.0021373c.0162432-.0162433.0213727-.037616.0401806-.0542867.0068393-.0021373.014106-.009404.018808-.0166707.0824986-.1060086.1513188-.2150094.1940642-.316316.0448826-.1209695.0730946-.2342448.0944673-.3218729l.014106-.0564239v-12.0465101c.0448827-1.7230672.7540289-3.2811372 1.8910567-4.413463 1.1297611-1.1318983 2.6779993-1.8316406 4.3895253-1.8316406 1.740166 0 3.292679.6997423 4.418165 1.8316406 1.129761 1.1280512 1.815398 2.6831291 1.815398 4.3972198v11.8285084c0 .4325835.184232.8322531.46336 1.1062511.285967.2739981.675805.4351483 1.082741.4351483.413348 0 .801476-.1611502 1.084878-.4351483.288532-.273998.463361-.6736676.463361-1.1062511v-11.8285084c0-5.1059386-4.169815-9.3137963-9.327903-9.321063zm152.381812 9.1317008c-.879273-3.567104-4.011656-6.1083183-7.585599-6.1010671-3.664137 0-6.753347 2.4869432-7.710844 6.1010671zm3.387146 1.461038v.153456c0 .4278815-.191499.8130176-.481741 1.0660704-.288531.2551901-.664691.3877008-1.068635.3924028h-17.348222c.441987 4.2335049 3.821866 7.3590489 7.857032 7.3919629h1.023753c1.335366.004702 2.635682-.4560935 3.779976-1.2199539 1.146004-.7561662 2.136843-1.8128326 2.83402-2.9759351.144052-.2483508.350085-.4372855.574071-.5531255.229543-.125244.475757-.1820954.72368-.1820954.273998 0 .545859.0709573.784806.2150094l.01667.0072667.018808.014106c.434721.3193081.707009.8061783.707009 1.3404959 0 .2718607-.070957.5484235-.220139.7989116l-.004274.009404-.00513.004702c-.969465 1.5413993-2.290726 2.9477231-3.85991 3.9667735-1.572176 1.0211878-3.39484 1.6687807-5.349587 1.6687807h-1.040423c-3.044328-.0213728-5.79585-1.3071545-7.779237-3.3640634-1.978684-2.0492147-3.198211-4.8648546-3.198211-7.958767 0-3.1464892 1.229358-6.0018823 3.224286-8.0681952 1.995356-2.0633207 4.767823-3.3401259 7.838653-3.3401259 2.931052 0 5.564169 1.1656672 7.514642 3.0733946 1.950045 1.9073 3.224286 4.5570876 3.451264 7.5381522zm-71.159131-19.9702258c-.422752 0-.81088.1773935-1.08958.456521-.279127.2765627-.456093.6664008-.456093 1.0895803v28.9809571c0 .4231796.176966.8108804.456093 1.0853059.2787.273998.666828.4560935 1.08958.4560935.877136 0 1.586282-.6903383 1.590984-1.5413994v-28.9809571c-.004702-.8531982-.713848-1.5461013-1.590984-1.5461013zm-101.0928823 20.1497565c-1.2481658-.5886042-2.6643211-1.023325-4.0774842-1.4918146-1.3003152-.4394228-2.6194384-.8130176-3.5602647-1.3045898-.4727642-.2530528-.8416571-.5202116-1.0801764-.8202843-.2436488-.3000728-.3616261-.605275-.3688929-1.0211878.0025648-.5697962.1679895-1.0284544.4466895-1.4349632.4231795-.6074122 1.1323258-1.0801764 1.9077274-1.3853786.7659977-.306912 1.595686-.4513914 2.1889922-.4513914 1.753844.0025647 2.8626598.5864669 3.7137208 1.1913144.4206148.3052022.7754017.6146789 1.1109531.869869.1726914.1325107.3334142.2530528.5202116.3428181.1769659.0876281.3851361.1585855.6121142.1585855.144052 0 .2885315-.0260747.4206148-.0829261.13935-.0564239.2603195-.1367853.3761595-.2363821.1132753-.1060086.2103074-.2338174.2787001-.3757321.0615533-.1466167.0897653-.2979355.0897653-.4466895 0-.2744255-.0876281-.5317528-.2128721-.7732644-.2338174-.4253167-.5933062-.8318255-1.051537-1.2383343-.6809343-.605275-1.5790152-1.1819105-2.5459163-1.6170587-.9694658-.4347208-2.0094615-.730519-2.9998725-.730519-2.2954283 0-4.2125597.5202116-5.6047775 1.4777087-.725817.5009761-1.3640059 1.0493997-1.8153974 1.8059933-.4586582.758731-.7138482 1.6948553-.7471896 2.9122445-.0021804.0542866-.0021804.1085733-.0021804.16286-.0046589 1.1819104.3757752 2.1560782.9737834 2.9195111.9079124 1.1489965 2.2552476 1.8367701 3.5769355 2.3236402 1.3191232.4868702 2.6378189.7779664 3.470072 1.0566664 1.172079.3902656 2.4181075.8130176 3.3255925 1.3734099.4518189.2859668.818147.5933062 1.0664978.9314224.2410841.3475201.3778694.7065815.3829989 1.1605377v.0333414c-.0025648.6569969-.1962014 1.1725065-.5155096 1.614494-.4821682.6569969-1.2836445 1.139165-2.1347055 1.4443672-.8484963.297508-1.730334.4231795-2.2975656.4231795-2.0021947 0-3.3422632-.4825956-4.3138662-.966901-.4872976-.2436488-.8818377-.4847329-1.2387619-.6882011-.1773934-.097032-.3428181-.1867974-.5176468-.2577547-.1705542-.07053-.3522221-.1158401-.5578275-.1158401-.1252441 0-.2624568.0213727-.3881283.0709574-.1273813.0547141-.2432214.1303735-.3402534.2222761-.1346481.1303735-.2526254.2765628-.3355515.4445522-.0803613.1679894-.120542.3449554-.120542.5296156 0 .3026374.1132753.5792002.2744255.8296883.2526253.3616261.6240829.6856363 1.0870156 1.009219.4774662.3193082 1.0472625.6334869 1.7042593.9433911 1.456336.6877735 3.3238827 1.0472624 4.7421753 1.0707724h.0047019c2.2056629 0 4.1108256-.5082429 5.7159156-1.6901533v-.0025648h.0021373c1.5696112-1.1819104 2.5459163-2.9383191 2.5459163-4.9212784 0-1.0900079-.2551901-2.0141635-.7018796-2.7707572-.6736675-1.1464318-1.7683774-1.902598-3.0092765-2.4984689zm124.4053713.5531255c0-2.3236402-.877135-4.4061963-2.278757-5.9095522-1.399912-1.4986539-3.321318-2.4087036-5.42311-2.4134056-2.084693 0-3.99926.9147517-5.413278 2.4134056-1.403759 1.5033559-2.292436 3.585912-2.292436 5.9095522 0 2.321503.888677 4.3899531 2.292436 5.8813403 1.406752 1.4918146 3.328585 2.3898956 5.413278 2.3898956 2.106494 0 4.028327-.898081 5.427812-2.3851936 1.39692-1.4960892 2.274055-3.5624021 2.274055-5.8860423zm2.628415-10.9351295c.285967.2765628.463361.6762323.463361 1.1083884v19.6509175c0 .4231796-.181668.8108804-.453529 1.0853059-.279555.273998-.664691.4560935-1.090008.4560935s-.815582-.1820955-1.090008-.4560935c-.2787-.2744255-.458231-.6621263-.458231-1.0853059v-1.9171314c-1.94577 2.1017916-4.678057 3.4585308-7.701867 3.4585308-3.008849 0-5.718052-1.2930485-7.658694-3.3640634-1.947481-2.0611834-3.138795-4.9003332-3.138795-8.0015124 0-3.1011791 1.191314-5.9428936 3.138795-8.0062143 1.940642-2.0684502 4.649845-3.3593614 7.658694-3.3593614 3.021673 0 5.756097 1.3169859 7.701867 3.408946v-1.8701114c0-.4321561.177394-.8318256.463361-1.1083884.285966-.2718607.671102-.4304462 1.084878-.4304462.409074 0 .798912.1585855 1.080176.4304462zm21.825804 1.9927908c.30734-.3052022.474902-.7095737.474902-1.1109531 0-.3949675-.167562-.789935-.477467-1.0759018h.002565c-.002565-.009404-.009831-.009404-.009831-.009404-.002138-.0068393-.00684-.009404-.00684-.009404h-.004702c-.297935-.2932335-.680934-.4539562-1.075901-.4539562-.399242 0-.789081.1658522-1.087016.4633602l-12.086691 11.7793512v-19.7975343c0-.8531982-.713848-1.5461013-1.590984-1.5461013-.422752 0-.810453.1773935-1.087015.456521-.274426.2765627-.458659.6664008-.458659 1.0895803v28.9809571c0 .4231796.184233.8108804.458659 1.0853059.276562.273998.664263.4560935 1.087015.4560935.877136 0 1.590984-.6903383 1.590984-1.5413994v-4.7819284l3.935997-3.9312949 8.023313 9.6801244c.150891.2222761.356924.3757321.559964.4560935.231681.0876281.456521.1184048.656997.1184048.276563 0 .666829-.0589887 1.009647-.3287122l.018808-.0115413.020945-.0213727c.321445-.3167434.503541-.7377857.503541-1.1678044 0-.3616262-.134221-.730519-.382571-1.0258898v-.004702l-8.167365-9.9284752 8.084438-7.8194169zm-54.144322-11.6917232h-.345383c-.044883 0-.089765.004702-.136785.0068393-.042746-.0021373-.087628-.0068393-.132511-.0068393-.891242 0-1.756409.1013067-2.565152.3710302-.796347.264594-1.531567.7018795-2.101364 1.3665706l-.002137-.0025648-.002137.0025648v.0021372c-.588605.6548596-.976733 1.4371005-1.212687 2.326205-.236383.8933789-.333842 1.9004607-.342819 3.0443277v2.2154943h-2.442045c-.848496.004702-1.522257.6830716-1.522257 1.5033559-.004608.4419875.167656.8484963.446783 1.1417298.281265.2885315.666401.4774662 1.094282.5009762h2.423237v18.0244549l-.002564.0423179c0 .4231795.177393.8130176.46336 1.0921451.283402.2744255.680934.4372855 1.113518.4372855.822421-.004702 1.498226-.6758049 1.500791-1.5294306v-18.0667728h2.626278c.423179-.02351.813017-.2009035 1.092572-.4868702.285539-.2859668.460796-.6877736.460796-1.1229218v-.0589887c-.009832-.8108803-.688201-1.4772812-1.536698-1.4772812h-2.642948v-2.2060903c.016671-.9758776.118405-1.7063966.264594-2.2381494.141915-.5343176.335979-.8702965.510808-1.0780391.170126-.1846602.392402-.3381162.754028-.4612229.364191-.1179774.867732-.1936367 1.548666-.1936367h.080362c.040181 0 .082498-.0072667.120114-.0072667.047875 0 .09233.0072667.141915.0072667h.198766.146617c.872006 0 1.574313-.7044443 1.574313-1.5743133s-.702307-1.5743133-1.574313-1.5743133zm-155.691161 21.6573869c.125244-.3949675.1773934-.8014763.1679895-1.2032831-.0145335-.2906688-.0521494-.5813375-.1346481-.8720063-.2483508-.9032104-.836955-1.7093887-1.7187927-2.2176316l-12.5427842-7.2427814c-1.77051466-1.0190505-4.02789949-.4133481-5.04438522 1.3546019-1.02588972 1.7658126-.42061479 4.0206328 1.34989988 5.0422479l7.00896404 4.0539742-7.00896404 4.0420055c-1.77051467 1.0237525-2.37365233 3.2785726-1.34989988 5.051652 1.01648573 1.763248 3.27387056 2.3663856 5.04438522 1.3473352l12.5427842-7.2474835c.846359-.4868701 1.4208573-1.2507305 1.6854513-2.1086308zm3.4038166 6.786688c-.7206875-.0615534-1.4700145.0897653-2.1436821.4821681l-12.5521881 7.2380795c-1.7658127 1.0211877-2.3689504 3.2879765-1.3498999 5.0563539 1.0237524 1.7636754 3.279 2.3710876 5.042248 1.3451979l7.032474-4.0565389v8.1058111c0 2.0423755 1.6521099 3.6970501 3.6970501 3.6970501 2.0351087 0 3.692348-1.6546746 3.692348-3.6970501v-14.4906923c0-1.9453433-1.5080578-3.543594-3.41835-3.6803793zm12.8548256-15.7482621c.7185503.0589886 1.46574-.0944674 2.1394076-.4821682l12.5496234-7.2449187c1.7683774-1.0216152 2.3685229-3.279 1.3520372-5.0516519-1.018623-1.7658127-3.2760079-2.3710877-5.042248-1.3498999l-7.0273446 4.0612409v-8.10837587c0-2.037246-1.6525373-3.69192063-3.6970501-3.69192063-2.0449401 0-3.6927755 1.65467463-3.6927755 3.69192063v14.49069227c0 1.9432061 1.5037834 3.5435941 3.41835 3.6850814zm-27.5506958-7.7270869 12.5521881 7.2449187c.6736676.3877008 1.4229946.5411568 2.1436821.4821682 1.9102922-.1414873 3.41835-1.7418753 3.41835-3.6850814v-14.49069227c0-2.037246-1.6572393-3.69192063-3.692348-3.69192063-2.0449402 0-3.6970501 1.65467463-3.6970501 3.69192063v8.10837587l-7.032474-4.0612409c-1.763248-1.0211878-4.0184956-.4159128-5.042248 1.3498999-1.0190505 1.7726519-.4159128 4.0300367 1.3498999 5.0516519zm23.5886243 15.573006c0-.2103074-.1273814-.5035409-.2761354-.6595616l-1.5106226-1.5033559c-.148754-.148754-.4419875-.2718608-.6527223-.2718608h-.0589887c-.2103074 0-.5031134.1231068-.6497301.2718608l-1.5106226 1.5033559c-.1513188.1560207-.2671588.4492542-.2671588.6595616v.0589886c0 .2081701.11584.4988389.2671588.6501576l1.5106226 1.5080579c.148754.148754.4394227.2718608.6497301.2718608h.0589887c.2107348 0 .5039683-.1231068.6527223-.2718608l1.5106226-1.5080579c.148754-.1513187.2761354-.4419875.2761354-.6501576zm4.1702417 1.4465045-5.2170767 5.2102374c-.1491815.153456-.4372855.2787-.6548596.2787h-.3782969-.7706996-.3851361c-.2107348 0-.5035409-.125244-.6548596-.2787l-5.214512-5.2102374c-.1491814-.1466168-.2697235-.4419875-.2697235-.6497302v-.3855636-.7706996-.3804341c0-.2128721.1205421-.5082429.2697235-.6569969l5.214512-5.2102374c.1513187-.153456.4441248-.273998.6548596-.273998h.3851361.7706996.3782969c.2128721 0 .5056781.120542.6548596.273998l5.2170767 5.2102374c.148754.148754.269296.4441248.269296.6569969v.3804341.7706996.3855636c0 .2077427-.120542.5031134-.269296.6497302zm14.4808608 14.1760861-12.5496234-7.2380795c-.6736676-.3924028-1.4208573-.5437215-2.1394076-.4821681-1.9145666.1367853-3.41835 1.735036-3.41835 3.6803793v14.4906923c0 2.0423755 1.6478354 3.6970501 3.6927755 3.6970501 2.0445128 0 3.6970501-1.6546746 3.6970501-3.6970501v-8.1058111l7.0273446 4.0565389c1.7658127 1.0258897 4.023625.4184775 5.042248-1.3451979 1.0164857-1.7683774.4163402-4.0351662-1.3520372-5.0563539zm6.6353692-19.6457882-7.008964 4.0539742 7.008964 4.0420055c1.7705147 1.0237525 2.3757896 3.2785726 1.3520372 5.051652-1.0211878 1.763248-3.2807099 2.3663856-5.0443853 1.3473352l-12.5521881-7.2474835c-.8369551-.4868701-1.4182926-1.2507305-1.6760474-2.1086308-.1226793-.3949675-.1795307-.8014763-.1654247-1.2032831.0072667-.2906688.0495847-.5813375.129946-.8720063.2509156-.9032104.8395198-1.7089613 1.7115261-2.2176316l12.5521881-7.2427814c1.7636754-1.0190505 4.0231975-.4133481 5.0443853 1.3546019 1.0237524 1.7658126.4184775 4.0206328-1.3520372 5.0422479zm203.5488636-7.2298051c0 2.032-1.36 3.728-3.632 3.728-2.256 0-3.6-1.712-3.6-3.728 0-2.032 1.344-3.728 3.6-3.728 2.272 0 3.632 1.696 3.632 3.728zm-.72 0c0-1.728-1.152-3.04-2.912-3.04-1.728 0-2.88 1.248-2.88 3.04 0 1.712 1.152 3.04 2.88 3.04 1.76 0 2.912-1.312 2.912-3.04zm-4.336-1.68h1.552c.848 0 1.408.464 1.408 1.184 0 .448-.224.784-.56.992l.608.88v.176h-.88l-.592-.848h-.688v.848h-.848zm1.536.784h-.688v.848h.688c.32 0 .528-.144.528-.416 0-.288-.192-.432-.528-.432z" fill="#29b5e8" fill-rule="evenodd" transform="translate(-5 -3)"/></svg>